<svg width="182" height="39" viewBox="0 0 182 39" fill="none" xmlns="http://www.w3.org/2000/svg">
<rect width="182" height="39" fill="#F5F5F5"/>
<g id="main" clip-path="url(#clip0_0_1)">
<rect width="1920" height="5201" transform="translate(-364 -25)" fill="white"/>
<g id="Frame 4998" clip-path="url(#clip1_0_1)">
<rect width="1944" height="682" transform="translate(-388 -48)" fill="#91AFF5"/>
<g id="Group 14182">
</g>
</g>
<g id="Group 14181">
<g id="Group 14159">
<g id="matroskin_logo 2" clip-path="url(#clip2_0_1)">
<g id="Group 14229">
<path id="Vector" fill-rule="evenodd" clip-rule="evenodd" d="M20.6248 16.0077C18.9502 15.9852 17.253 16.2219 15.7176 16.7517C12.1878 17.9767 9.77566 20.0434 7.75109 23.0682C5.24485 26.8296 2.33219 35.2541 7.97688 38.3729C10.1971 39.5978 13.0007 38.8952 15.0177 37.317C17.0347 35.7388 19.0066 34.5476 20.6285 34.5476C22.2504 34.5476 24.2223 35.7388 26.2506 37.317C28.2677 38.8952 31.0599 39.5978 33.2802 38.3729C38.9249 35.2503 36.0122 26.8258 33.506 23.0682C31.4889 20.0434 29.0805 17.9767 25.5469 16.7517C24.0003 16.2181 22.3144 15.9852 20.6285 16.0077H20.6248ZM38.0556 10.0106C44.1255 11.2994 40.7236 22.3655 34.8983 21.3435C31.09 20.6709 30.7702 14.6136 34.3 11.2882C35.0789 10.5517 36.5277 9.6912 38.0556 10.0106ZM29.0956 0.180742C32.3281 1.19153 33.6715 5.37749 32.6592 9.11629C32.2001 10.8297 31.3911 12.3102 30.3111 13.3661C29.2875 14.3656 27.4097 15.4967 25.4265 14.8992C20.5533 13.4413 20.2861 5.50524 24.1132 1.71384C25.2007 0.65044 27.1011 -0.43926 29.0956 0.180742ZM3.20524 10.0106C-2.86469 11.2994 0.52965 22.3655 6.35121 21.3435C10.1595 20.6709 10.4794 14.6136 6.96084 11.2882C6.18187 10.5517 4.72178 9.6912 3.20524 10.0106ZM12.1652 0.180742C8.93272 1.19153 7.58928 5.37749 8.60156 9.11629C9.06066 10.8297 9.86974 12.3102 10.9385 13.3661C11.962 14.3656 13.8511 15.4967 15.8343 14.8992C20.7 13.4413 20.9747 5.50524 17.1363 1.71384C16.0601 0.65044 14.1484 -0.43926 12.1652 0.180742Z" fill="white"/>
<path id="Vector_2" fill-rule="evenodd" clip-rule="evenodd" d="M7.75211 18.2439H2.7923C3.62395 19.3712 4.78676 20.1077 6.10009 19.8747C6.98443 19.7244 7.49621 19.0744 7.75211 18.2439ZM33.5032 18.2439H38.4743C37.6426 19.3712 36.4685 20.1077 35.1552 19.8747C34.2709 19.7244 33.7591 19.0744 33.5032 18.2439ZM30.933 3.78849H24.3287C24.5733 3.41649 24.8518 3.07455 25.1716 2.76643C25.6307 2.308 26.2818 1.84958 27.0156 1.61661C27.5274 1.4663 28.0918 1.42497 28.6488 1.59406C29.6836 1.92473 30.4513 2.73261 30.933 3.78849ZM30.9556 9.57142H23.0417C22.9138 8.64329 22.9551 7.65505 23.1471 6.68559H31.5087C31.4975 7.6776 31.2942 8.63578 30.9556 9.57142ZM39.6936 15.3543H33.5484C33.8268 14.3097 34.38 13.2877 35.2229 12.4572H39.2758C39.829 13.2877 39.8516 14.4074 39.6936 15.3543ZM24.2685 12.4572H29.1116C28.2574 13.2238 27.0118 13.8212 25.8565 13.4793C25.2281 13.2877 24.6937 12.9457 24.2685 12.4572ZM29.1342 20.3595H12.1362C13.2877 19.4313 14.6198 18.6986 16.2003 18.1537C16.8514 17.9283 17.5551 17.7592 18.2926 17.6427C19.0829 17.5262 19.8619 17.4736 20.6182 17.4811H20.6408C21.4085 17.4699 22.1875 17.5225 22.9664 17.6427C23.704 17.7592 24.4077 17.9321 25.0663 18.1537C26.6468 18.6986 27.9676 19.4313 29.1304 20.3595H29.1342ZM33.6048 26.3227H7.66556C8.13595 25.2593 8.68913 24.2899 9.37402 23.3392H31.8926C32.5662 24.2861 33.1194 25.2556 33.601 26.3227H33.6048ZM35.0461 32.2973H6.21675C6.21675 31.2978 6.37856 30.2832 6.62317 29.3138H34.6321C34.8767 30.2832 35.0386 31.294 35.0386 32.2973H35.0461ZM26.1726 35.2808H34.3762C34.0564 35.867 33.6086 36.3893 33.0102 36.7951C32.9877 36.8177 32.9688 36.829 32.9463 36.8477C32.7957 36.9454 32.6678 37.0168 32.5737 37.0732C31.934 37.4264 31.1663 37.479 30.3873 37.3625C28.4982 37.0845 27.5725 36.3818 26.1726 35.2846V35.2808ZM10.3223 3.79225H16.9341C16.6895 3.42025 16.3998 3.07831 16.0912 2.77019C15.6321 2.31176 14.9698 1.85333 14.236 1.62036C13.7242 1.47006 13.171 1.42873 12.6028 1.59782C11.5679 1.92849 10.8002 2.73637 10.3186 3.79225H10.3223ZM10.2997 9.57518H18.2136C18.3416 8.64705 18.3114 7.65881 18.1082 6.68935H9.75785C9.76914 7.68135 9.96106 8.63954 10.3035 9.57518H10.2997ZM1.56552 15.3581H7.71824C7.42848 14.3135 6.8753 13.2914 6.03236 12.461H1.97947C1.43381 13.2914 1.40371 14.4112 1.56176 15.3581H1.56552ZM17.0019 12.461H12.1587C13.013 13.2276 14.251 13.825 15.4138 13.4831C16.031 13.2914 16.5654 12.9495 17.0019 12.461ZM15.094 35.2883H6.88659C7.24032 35.9384 7.71824 36.4494 8.32787 36.8553C8.47839 36.953 8.60634 37.0244 8.70042 37.0807C9.32886 37.4339 10.0965 37.4865 10.8868 37.37C12.7646 37.092 13.7016 36.3893 15.0902 35.2921L15.094 35.2883Z" fill="#AAB1DD"/>
</g>
<path id="Vector_3" d="M49.5039 18.893C49.5039 19.8737 50.2415 20.6703 51.3403 20.6703C52.4391 20.6703 53.1767 19.8699 53.1767 18.893V12.3548L55.3857 16.2213C55.8448 16.9992 56.4732 17.3824 57.2522 17.3824C58.0312 17.3824 58.6596 16.9992 59.1074 16.2213L61.2938 12.3548V18.893C61.2938 19.8737 62.0502 20.6703 63.1076 20.6703C64.2177 20.6703 64.9741 19.8699 64.9741 18.893V7.87949C64.9741 6.56057 63.9807 5.54603 62.5733 5.54603C61.6362 5.54603 60.9513 5.9293 60.4922 6.72967L57.2296 12.5652L53.9745 6.72967C53.5267 5.9293 52.8343 5.54603 51.9048 5.54603C50.4522 5.54603 49.5039 6.55682 49.5039 7.87949V18.893ZM66.7842 18.9155C66.7842 19.8963 67.4992 20.6741 68.6093 20.6741C69.5802 20.6741 70.2086 20.257 70.4645 19.419L70.965 17.7995H75.4883L75.9587 19.419C76.2033 20.2194 76.843 20.6741 77.7838 20.6741C78.9052 20.6741 79.703 19.9827 79.703 18.9155C79.703 18.6826 79.6616 18.427 79.5525 18.1152L76.0001 7.50749C75.5523 6.19609 74.6341 5.52724 73.2794 5.52724C71.9246 5.52724 71.0516 6.19985 70.5925 7.50749L66.9535 18.1152C66.8482 18.4233 66.7842 18.6788 66.7842 18.9155ZM73.2605 10.2768L74.5739 14.7521H71.8983L73.2643 10.2768H73.2605ZM78.4762 7.42106C78.4762 8.3567 79.2213 9.11573 80.1207 9.11573H83.2366V18.8291C83.2366 19.8512 84.1021 20.6703 85.137 20.6703C86.1718 20.6703 87.0449 19.8061 87.0449 18.8291V9.11573H90.1608C91.0451 9.11573 91.8052 8.36046 91.8052 7.42106C91.8052 6.48166 91.0489 5.73766 90.1608 5.73766H80.1245C79.2289 5.73766 78.48 6.49294 78.48 7.42106H78.4762ZM93.1863 18.8291C93.1863 19.8512 94.0518 20.6703 95.0867 20.6703C96.1215 20.6703 96.9946 19.8061 96.9946 18.8291V16.3265H99.9825C101.337 16.3265 102.447 15.9846 103.309 15.2932C104.547 14.3576 105.304 12.8207 105.304 11.0321C105.304 9.24349 104.611 7.83815 103.46 6.88748C102.553 6.13221 101.36 5.73766 99.8772 5.73766H95.0867C94.0518 5.73766 93.1863 6.55682 93.1863 7.60143V18.8291ZM96.9946 9.07064H99.3955C99.9411 9.07064 100.344 9.17585 100.675 9.39004C101.164 9.70943 101.431 10.2543 101.431 11.0321C101.431 11.8099 101.164 12.3961 100.652 12.693C100.321 12.8959 99.9148 13.0011 99.3955 13.0011H96.9946V9.07064ZM106.82 13.1063C106.82 17.6455 110.489 20.6478 114.798 20.6478C119.107 20.6478 122.757 17.7281 122.757 13.1063C122.832 8.63101 118.96 5.43706 114.798 5.52348C112.653 5.52348 110.647 6.27875 109.198 7.57888C107.746 8.86773 106.82 10.8818 106.82 13.1063ZM114.798 9.08943C115.949 9.08943 116.879 9.4727 117.613 10.228C118.35 10.9833 118.712 11.9339 118.712 13.1025C118.712 14.2711 118.35 15.2218 117.613 15.9771C116.875 16.7324 115.927 17.0968 114.775 17.0968C113.624 17.0968 112.694 16.7361 111.961 15.9771C111.227 15.2181 110.862 14.2636 110.862 13.1025C110.862 11.9414 111.223 10.9833 111.961 10.228C112.698 9.4727 113.658 9.08943 114.798 9.08943ZM124.368 13.0837C124.326 17.6642 127.739 20.7304 132.327 20.6666C133.606 20.6666 134.769 20.4636 135.815 20.1029C136.658 19.7835 137.234 19.1748 137.234 18.397C137.234 17.3749 136.432 16.6196 135.461 16.6196C135.164 16.6196 134.404 16.8639 133.839 17.0142C133.316 17.1419 132.805 17.2058 132.281 17.2058C131.13 17.2058 130.2 16.8225 129.444 16.0447C128.706 15.2669 128.345 14.2674 128.345 13.0837C128.345 11.9001 128.729 10.9231 129.485 10.1453C130.242 9.34495 131.183 8.95416 132.281 8.95416C132.827 8.95416 133.316 9.01804 133.775 9.13452C134.257 9.28482 134.874 9.47646 135.205 9.47646C136.176 9.47646 136.978 8.72119 136.978 7.70664C136.978 6.90627 136.455 6.3013 135.589 6.02324C134.66 5.69257 133.606 5.54227 132.368 5.54227C128.078 5.54227 124.368 8.71743 124.368 13.0837ZM139.055 18.8028C139.055 19.8249 139.921 20.644 140.955 20.644C141.99 20.644 142.863 19.7798 142.863 18.8028V14.7221H143.665L147.409 19.8436C147.816 20.3772 148.339 20.6628 149.009 20.6628C150.066 20.6628 150.864 19.8436 150.864 18.7765C150.864 18.3068 150.694 17.8484 150.352 17.4463L146.777 12.8132L150.126 8.6047C150.457 8.21015 150.627 7.80434 150.627 7.391C150.627 6.35766 149.848 5.51596 148.813 5.51596C148.203 5.51596 147.703 5.77148 147.319 6.29379L143.639 11.3515H142.86V7.34591C142.86 6.33512 141.994 5.51221 140.952 5.51221C139.909 5.51221 139.051 6.33136 139.051 7.34591V18.7953L139.055 18.8028ZM152.708 18.8253C152.708 19.8474 153.573 20.6666 154.608 20.6666C155.643 20.6666 156.516 19.8023 156.516 18.8253V18.3556L162.18 12.584V18.8253C162.18 19.8474 163.045 20.6666 164.087 20.6666C165.13 20.6666 165.988 19.8023 165.988 18.8253V7.37973C165.988 6.36894 165.122 5.54603 164.087 5.54603C163.053 5.54603 162.18 6.36518 162.18 7.37973V7.94337L156.516 13.6962V7.37973C156.516 6.36894 155.65 5.54603 154.608 5.54603C153.566 5.54603 152.708 6.36518 152.708 7.37973V18.8291V18.8253ZM168.761 18.8253C168.761 19.8474 169.627 20.6666 170.662 20.6666C171.696 20.6666 172.57 19.8023 172.57 18.8253V14.7258H178.192V18.8253C178.192 19.8474 179.057 20.6666 180.1 20.6666C181.142 20.6666 182 19.8023 182 18.8253V7.37973C182 6.36894 181.157 5.54603 180.1 5.54603C179.042 5.54603 178.192 6.36518 178.192 7.37973V11.3628H172.57V7.37973C172.57 6.36894 171.704 5.54603 170.662 5.54603C169.619 5.54603 168.761 6.36518 168.761 7.37973V18.8291V18.8253Z" fill="white"/>
<path id="Vector_4" d="M49.5039 18.893C49.5039 19.8737 50.2415 20.6703 51.3403 20.6703C52.4391 20.6703 53.1767 19.8699 53.1767 18.893V12.3548L55.3857 16.2213C55.8448 16.9992 56.4732 17.3824 57.2522 17.3824C58.0312 17.3824 58.6596 16.9992 59.1074 16.2213L61.2938 12.3548V18.893C61.2938 19.8737 62.0502 20.6703 63.1076 20.6703C64.2177 20.6703 64.9741 19.8699 64.9741 18.893V7.87949C64.9741 6.56057 63.9807 5.54603 62.5733 5.54603C61.6362 5.54603 60.9513 5.9293 60.4922 6.72967L57.2296 12.5652L53.9745 6.72967C53.5267 5.9293 52.8343 5.54603 51.9048 5.54603C50.4522 5.54603 49.5039 6.55682 49.5039 7.87949V18.893ZM66.7842 18.9155C66.7842 19.8963 67.4992 20.6741 68.6093 20.6741C69.5802 20.6741 70.2086 20.257 70.4645 19.419L70.965 17.7995H75.4883L75.9587 19.419C76.2033 20.2194 76.843 20.6741 77.7838 20.6741C78.9052 20.6741 79.703 19.9827 79.703 18.9155C79.703 18.6826 79.6616 18.427 79.5525 18.1152L76.0001 7.50749C75.5523 6.19609 74.6341 5.52724 73.2794 5.52724C71.9246 5.52724 71.0516 6.19985 70.5925 7.50749L66.9535 18.1152C66.8482 18.4233 66.7842 18.6788 66.7842 18.9155ZM73.2605 10.2768L74.5739 14.7521H71.8983L73.2643 10.2768H73.2605ZM78.4762 7.42106C78.4762 8.3567 79.2213 9.11573 80.1207 9.11573H83.2366V18.8291C83.2366 19.8512 84.1021 20.6703 85.137 20.6703C86.1718 20.6703 87.0449 19.8061 87.0449 18.8291V9.11573H90.1608C91.0451 9.11573 91.8052 8.36046 91.8052 7.42106C91.8052 6.48166 91.0489 5.73766 90.1608 5.73766H80.1245C79.2289 5.73766 78.48 6.49294 78.48 7.42106H78.4762ZM93.1863 18.8291C93.1863 19.8512 94.0518 20.6703 95.0867 20.6703C96.1215 20.6703 96.9946 19.8061 96.9946 18.8291V16.3265H99.9825C101.337 16.3265 102.447 15.9846 103.309 15.2932C104.547 14.3576 105.304 12.8207 105.304 11.0321C105.304 9.24349 104.611 7.83815 103.46 6.88748C102.553 6.13221 101.36 5.73766 99.8772 5.73766H95.0867C94.0518 5.73766 93.1863 6.55682 93.1863 7.60143V18.8291ZM96.9946 9.07064H99.3955C99.9411 9.07064 100.344 9.17585 100.675 9.39004C101.164 9.70943 101.431 10.2543 101.431 11.0321C101.431 11.8099 101.164 12.3961 100.652 12.693C100.321 12.8959 99.9148 13.0011 99.3955 13.0011H96.9946V9.07064ZM106.82 13.1063C106.82 17.6455 110.489 20.6478 114.798 20.6478C119.107 20.6478 122.757 17.7281 122.757 13.1063C122.832 8.63101 118.96 5.43706 114.798 5.52348C112.653 5.52348 110.647 6.27875 109.198 7.57888C107.746 8.86773 106.82 10.8818 106.82 13.1063ZM114.798 9.08943C115.949 9.08943 116.879 9.4727 117.613 10.228C118.35 10.9833 118.712 11.9339 118.712 13.1025C118.712 14.2711 118.35 15.2218 117.613 15.9771C116.875 16.7324 115.927 17.0968 114.775 17.0968C113.624 17.0968 112.694 16.7361 111.961 15.9771C111.227 15.2181 110.862 14.2636 110.862 13.1025C110.862 11.9414 111.223 10.9833 111.961 10.228C112.698 9.4727 113.658 9.08943 114.798 9.08943ZM124.368 13.0837C124.326 17.6642 127.739 20.7304 132.327 20.6666C133.606 20.6666 134.769 20.4636 135.815 20.1029C136.658 19.7835 137.234 19.1748 137.234 18.397C137.234 17.3749 136.432 16.6196 135.461 16.6196C135.164 16.6196 134.404 16.8639 133.839 17.0142C133.316 17.1419 132.805 17.2058 132.281 17.2058C131.13 17.2058 130.2 16.8225 129.444 16.0447C128.706 15.2669 128.345 14.2674 128.345 13.0837C128.345 11.9001 128.729 10.9231 129.485 10.1453C130.242 9.34495 131.183 8.95416 132.281 8.95416C132.827 8.95416 133.316 9.01804 133.775 9.13452C134.257 9.28482 134.874 9.47646 135.205 9.47646C136.176 9.47646 136.978 8.72119 136.978 7.70664C136.978 6.90627 136.455 6.3013 135.589 6.02324C134.66 5.69257 133.606 5.54227 132.368 5.54227C128.078 5.54227 124.368 8.71743 124.368 13.0837ZM139.055 18.8028C139.055 19.8249 139.921 20.644 140.955 20.644C141.99 20.644 142.863 19.7798 142.863 18.8028V14.7221H143.665L147.409 19.8436C147.816 20.3772 148.339 20.6628 149.009 20.6628C150.066 20.6628 150.864 19.8436 150.864 18.7765C150.864 18.3068 150.694 17.8484 150.352 17.4463L146.777 12.8132L150.126 8.6047C150.457 8.21015 150.627 7.80434 150.627 7.391C150.627 6.35766 149.848 5.51596 148.813 5.51596C148.203 5.51596 147.703 5.77148 147.319 6.29379L143.639 11.3515H142.86V7.34591C142.86 6.33512 141.994 5.51221 140.952 5.51221C139.909 5.51221 139.051 6.33136 139.051 7.34591V18.7953L139.055 18.8028ZM152.708 18.8253C152.708 19.8474 153.573 20.6666 154.608 20.6666C155.643 20.6666 156.516 19.8023 156.516 18.8253V18.3556L162.18 12.584V18.8253C162.18 19.8474 163.045 20.6666 164.087 20.6666C165.13 20.6666 165.988 19.8023 165.988 18.8253V7.37973C165.988 6.36894 165.122 5.54603 164.087 5.54603C163.053 5.54603 162.18 6.36518 162.18 7.37973V7.94337L156.516 13.6962V7.37973C156.516 6.36894 155.65 5.54603 154.608 5.54603C153.566 5.54603 152.708 6.36518 152.708 7.37973V18.8291V18.8253ZM168.761 18.8253C168.761 19.8474 169.627 20.6666 170.662 20.6666C171.696 20.6666 172.57 19.8023 172.57 18.8253V14.7258H178.192V18.8253C178.192 19.8474 179.057 20.6666 180.1 20.6666C181.142 20.6666 182 19.8023 182 18.8253V7.37973C182 6.36894 181.157 5.54603 180.1 5.54603C179.042 5.54603 178.192 6.36518 178.192 7.37973V11.3628H172.57V7.37973C172.57 6.36894 171.704 5.54603 170.662 5.54603C169.619 5.54603 168.761 6.36518 168.761 7.37973V18.8291V18.8253Z" fill="white"/>
<path id="Vector_5" opacity="0.5" d="M52.2535 33.4349C53.8002 33.4349 54.7598 32.6045 54.7598 31.4734C54.7598 30.6843 54.2894 30.2372 53.6496 30.023C54.2028 29.7562 54.5979 29.3316 54.5979 28.5838C54.5979 27.6031 53.6383 26.8892 52.2309 26.8892C51.0267 26.8892 50.2026 27.3476 49.5967 27.9526L50.4623 28.9746C50.8574 28.6214 51.5385 28.3584 52.0842 28.3584C52.5734 28.3584 52.8744 28.5838 52.8744 28.9107C52.8744 29.2377 52.6185 29.4857 51.9901 29.4857H51.3504V30.7745H52.0014C52.6938 30.7745 53.0137 31 53.0137 31.3381C53.0137 31.6763 52.6938 31.9544 52.0541 31.9544C51.309 31.9544 50.7219 31.6575 50.2741 31.2104L49.3672 32.3715C50.0709 32.9877 50.8198 33.4274 52.2573 33.4274L52.2535 33.4349ZM59.4862 33.4462C61.4393 33.4462 62.8994 31.9769 62.8994 30.1658C62.8994 28.3546 61.4581 26.8967 59.5088 26.8967C57.5595 26.8967 56.107 28.3546 56.107 30.1658C56.107 31.9769 57.5482 33.4462 59.49 33.4462H59.4862ZM59.5088 31.868C58.5492 31.868 57.8982 31.0676 57.8982 30.162C57.8982 29.2564 58.5379 28.4561 59.4862 28.4561C60.4346 28.4561 61.1082 29.2564 61.1082 30.162C61.1082 31.0676 60.4684 31.868 59.5088 31.868ZM67.7124 33.4462C69.6542 33.4462 71.1143 31.9769 71.1143 30.1658C71.1143 28.3546 69.673 26.8967 67.7237 26.8967C65.7744 26.8967 64.3219 28.3546 64.3219 30.1658C64.3219 31.9769 65.7631 33.4462 67.7124 33.4462ZM67.7237 31.868C66.7754 31.868 66.1131 31.0676 66.1131 30.162C66.1131 29.2564 66.7528 28.4561 67.7124 28.4561C68.672 28.4561 69.3344 29.2564 69.3344 30.162C69.3344 31.0676 68.6946 31.868 67.7237 31.868ZM72.7588 33.3184H74.4673V29.7186L76.0779 32.1686H76.1117L77.7224 29.6961V33.3184H79.4609V27.0132H77.617L76.1117 29.4518L74.6065 27.0132H72.7626V33.3184H72.7588ZM80.8006 33.3184H82.637L83.0961 32.1911H85.5271L85.9862 33.3184H87.864L85.1771 26.9718H83.4912L80.8044 33.3184H80.8006ZM83.6079 30.8384L84.3229 29.0385L85.0153 30.8384H83.6079ZM89.1961 33.3184H90.946V28.5463H93.742V27.0132H89.1961V33.3184ZM94.7016 33.3184H96.5455L96.9934 32.1911H99.4243L99.8834 33.3184H101.761L99.0744 26.9718H97.3885L94.7016 33.3184ZM97.5089 30.8384L98.2239 29.0385L98.9276 30.8384H97.5089ZM105.539 33.4386C107.086 33.4386 108.046 32.6082 108.046 31.4772C108.046 30.6881 107.575 30.2409 106.936 30.0267C107.489 29.76 107.873 29.3354 107.873 28.5876C107.873 27.6069 106.924 26.8929 105.517 26.8929C104.313 26.8929 103.489 27.3513 102.883 27.9563L103.748 28.9784C104.143 28.6252 104.824 28.3621 105.37 28.3621C105.852 28.3621 106.16 28.5876 106.16 28.9145C106.16 29.2414 105.904 29.4894 105.265 29.4894H104.625V30.7783H105.287C105.98 30.7783 106.3 31.0037 106.3 31.3419C106.3 31.6801 105.98 31.9581 105.329 31.9581C104.584 31.9581 104.008 31.6613 103.556 31.2141L102.649 32.3752C103.342 32.9915 104.102 33.4311 105.539 33.4311V33.4386ZM109.604 33.3222H111.237L113.679 29.775V33.3222H115.406V27.0169H113.773L111.331 30.5641V27.0169H109.604V33.3222ZM117.25 33.3222H119V30.9248H121.239V33.3222H122.989V27.0169H121.239V29.3804H119V27.0169H117.25V33.3222Z" fill="white"/>
</g>
</g>
</g>
</g>
<defs>
<clipPath id="clip0_0_1">
<rect width="1920" height="5201" fill="white" transform="translate(-364 -25)"/>
</clipPath>
<clipPath id="clip1_0_1">
<rect width="1944" height="682" fill="white" transform="translate(-388 -48)"/>
</clipPath>
<clipPath id="clip2_0_1">
<rect width="182" height="39" fill="white"/>
</clipPath>
</defs>
</svg>
