<svg width="125" height="125" viewBox="0 0 125 125" fill="none" xmlns="http://www.w3.org/2000/svg">
<path fill-rule="evenodd" clip-rule="evenodd" d="M78.5251 35.7874C80.8557 35.5548 82.9336 37.2556 83.1661 39.5862C83.7709 45.6465 85.854 51.7418 88.6031 57.5926C89.5991 59.7124 88.6881 62.2383 86.5683 63.2343C84.4485 64.2304 81.9226 63.3194 80.9266 61.1996C77.9447 54.8536 75.4608 47.7879 74.7263 40.4284C74.4938 38.0978 76.1945 36.02 78.5251 35.7874ZM50.7219 48.988C52.2964 47.2541 54.9785 47.1249 56.7124 48.6995C58.5657 50.3825 60.325 52.0453 62.0468 53.6726C66.1035 57.5067 69.9519 61.1439 74.3306 64.3847C76.2132 65.778 76.6099 68.4338 75.2165 70.3164C73.8231 72.199 71.1674 72.5956 69.2848 71.2022C64.4729 67.6408 60.0412 63.4534 55.8326 59.4769C54.1945 57.929 52.5902 56.4131 51.0104 54.9786C49.2765 53.404 49.1473 50.7219 50.7219 48.988ZM38.0916 72.2482C38.8696 70.039 41.2911 68.8788 43.5003 69.6568C50.1588 72.0017 56.785 74.2424 63.4922 76.2923C65.7321 76.9768 66.993 79.3476 66.3084 81.5875C65.6239 83.8273 63.2531 85.0882 61.0132 84.4036C54.151 82.3064 47.4033 80.0236 40.6829 77.6569C38.4738 76.8789 37.3136 74.4573 38.0916 72.2482Z" fill="#1951E7"/>
</svg>
