<svg width="49" height="51" viewBox="0 0 49 51" fill="none" xmlns="http://www.w3.org/2000/svg">
<path id="Vector" opacity="0.06" fill-rule="evenodd" clip-rule="evenodd" d="M22.2808 21.3717C20.6264 22.2974 19.0966 23.49 17.8913 24.8784C15.1243 28.0771 13.9293 31.4683 13.6567 35.5795C13.3286 40.6853 15.2414 50.5925 22.5402 50.4551C25.41 50.3993 27.7607 48.1237 28.8448 45.435C29.9289 42.7462 31.1878 40.4625 32.7778 39.5445C34.3677 38.6265 36.975 38.6782 39.8566 39.0773C42.7271 39.4828 45.8621 38.5913 47.3453 36.1338C51.1116 29.8779 43.4881 23.2678 38.9045 21.0026C35.2151 19.1789 31.6844 18.5161 27.5271 19.3152C25.7089 19.6675 23.9244 20.3933 22.2844 21.3696L22.2808 21.3717ZM35.9741 5.62707C42.654 3.45507 45.5824 16.2287 39.2933 18.5238C35.1793 20.0199 31.4374 14.2629 33.0156 9.00511C33.3624 7.84224 34.2956 6.17869 35.9741 5.62707ZM21.627 1.06196C25.368 0.223297 29.0541 3.56648 30.1779 7.80461C30.6976 9.74418 30.7424 11.6534 30.2813 13.2998C29.8435 14.859 28.6429 17.0306 26.3606 17.5673C20.7581 18.8962 16.0045 11.2677 17.6104 5.38483C18.0747 3.72683 19.3209 1.583 21.627 1.06196ZM1.80989 25.3518C-3.41107 30.0508 6.17968 38.9779 11.3082 34.681C14.6608 31.8662 11.5461 25.7472 6.21464 24.4786C5.03417 24.1975 3.1158 24.1804 1.80989 25.3518ZM5.02997 10.6443C2.43317 13.4647 3.48536 18.3286 6.59382 21.4209C8.01367 22.8408 9.64475 23.8342 11.29 24.2644C12.8592 24.6649 15.3512 24.7045 16.9572 22.9963C20.902 18.8132 16.6796 10.8779 10.7709 9.33361C9.11397 8.90029 6.62318 8.91402 5.02997 10.6443Z" fill="#3755A5"/>
</svg>
